
                <svg id="trend-chart" width="660" height="400" title="Stack Overflow Trends Chart" version="1.1" xmlns="http://www.w3.org/2000/svg"><g></g><g class="chart-area" transform="translate(100, 20)"><g transform="translate(0,300)" fill="none" font-size="10" font-family="sans-serif" text-anchor="middle"><path class="domain" stroke="#000" d="M0.5,6V0.5H410.5V6"></path><g class="tick" opacity="1" transform="translate(19.27121723996724,0)"><line stroke="#000" y2="6" x1="0.5" x2="0.5"></line><text fill="#000" y="9" x="0.5" dy="0.71em" style="font-size: 12px;">2009</text></g><g class="tick" opacity="1" transform="translate(65.23251945126945,0)"><line stroke="#000" y2="6" x1="0.5" x2="0.5"></line><text fill="#000" y="9" x="0.5" dy="0.71em" style="font-size: 12px;">2010</text></g><g class="tick" opacity="1" transform="translate(111.19382166257166,0)"><line stroke="#000" y2="6" x1="0.5" x2="0.5"></line><text fill="#000" y="9" x="0.5" dy="0.71em" style="font-size: 12px;">2011</text></g><g class="tick" opacity="1" transform="translate(157.15512387387386,0)"><line stroke="#000" y2="6" x1="0.5" x2="0.5"></line><text fill="#000" y="9" x="0.5" dy="0.71em" style="font-size: 12px;">2012</text></g><g class="tick" opacity="1" transform="translate(203.24234746109747,0)"><line stroke="#000" y2="6" x1="0.5" x2="0.5"></line><text fill="#000" y="9" x="0.5" dy="0.71em" style="font-size: 12px;">2013</text></g><g class="tick" opacity="1" transform="translate(249.20364967239968,0)"><line stroke="#000" y2="6" x1="0.5" x2="0.5"></line><text fill="#000" y="9" x="0.5" dy="0.71em" style="font-size: 12px;">2014</text></g><g class="tick" opacity="1" transform="translate(295.16495188370186,0)"><line stroke="#000" y2="6" x1="0.5" x2="0.5"></line><text fill="#000" y="9" x="0.5" dy="0.71em" style="font-size: 12px;">2015</text></g><g class="tick" opacity="1" transform="translate(341.1262540950041,0)"><line stroke="#000" y2="6" x1="0.5" x2="0.5"></line><text fill="#000" y="9" x="0.5" dy="0.71em" style="font-size: 12px;">2016</text></g><g class="tick" opacity="1" transform="translate(387.2134776822277,0)"><line stroke="#000" y2="6" x1="0.5" x2="0.5"></line><text fill="#000" y="9" x="0.5" dy="0.71em" style="font-size: 12px;">2017</text></g></g><g class="grid-lines" transform="translate(0,300)" fill="none" font-size="10" font-family="sans-serif" text-anchor="middle"><path class="domain" stroke="#000" d="M0.5,-300V0.5H410.5V-300"></path><g class="tick" opacity="1" transform="translate(19.27121723996724,0)"><line stroke="#000" y2="-300" x1="0.5" x2="0.5" style="stroke: #ccc; fill: none;"></line></g><g class="tick" opacity="1" transform="translate(65.23251945126945,0)"><line stroke="#000" y2="-300" x1="0.5" x2="0.5" style="stroke: #ccc; fill: none;"></line></g><g class="tick" opacity="1" transform="translate(111.19382166257166,0)"><line stroke="#000" y2="-300" x1="0.5" x2="0.5" style="stroke: #ccc; fill: none;"></line></g><g class="tick" opacity="1" transform="translate(157.15512387387386,0)"><line stroke="#000" y2="-300" x1="0.5" x2="0.5" style="stroke: #ccc; fill: none;"></line></g><g class="tick" opacity="1" transform="translate(203.24234746109747,0)"><line stroke="#000" y2="-300" x1="0.5" x2="0.5" style="stroke: #ccc; fill: none;"></line></g><g class="tick" opacity="1" transform="translate(249.20364967239968,0)"><line stroke="#000" y2="-300" x1="0.5" x2="0.5" style="stroke: #ccc; fill: none;"></line></g><g class="tick" opacity="1" transform="translate(295.16495188370186,0)"><line stroke="#000" y2="-300" x1="0.5" x2="0.5" style="stroke: #ccc; fill: none;"></line></g><g class="tick" opacity="1" transform="translate(341.1262540950041,0)"><line stroke="#000" y2="-300" x1="0.5" x2="0.5" style="stroke: #ccc; fill: none;"></line></g><g class="tick" opacity="1" transform="translate(387.2134776822277,0)"><line stroke="#000" y2="-300" x1="0.5" x2="0.5" style="stroke: #ccc; fill: none;"></line></g></g><text x="205" y="360" class="axis-label x-axis-label" style="text-anchor: middle; font-weight: bold;">Year</text><g fill="none" font-size="10" font-family="sans-serif" text-anchor="end"><path class="domain" stroke="#000" d="M-6,300.5H0.5V0.5H-6"></path><g class="tick" opacity="1" transform="translate(0,300)"><line stroke="#000" x2="-6" y1="0.5" y2="0.5"></line><text fill="#000" x="-9" y="0.5" dy="0.32em" style="font-size: 12px;">0.00%</text></g><g class="tick" opacity="1" transform="translate(0,272.72727272727275)"><line stroke="#000" x2="-6" y1="0.5" y2="0.5"></line><text fill="#000" x="-9" y="0.5" dy="0.32em" style="font-size: 12px;">1.00%</text></g><g class="tick" opacity="1" transform="translate(0,245.45454545454544)"><line stroke="#000" x2="-6" y1="0.5" y2="0.5"></line><text fill="#000" x="-9" y="0.5" dy="0.32em" style="font-size: 12px;">2.00%</text></g><g class="tick" opacity="1" transform="translate(0,218.1818181818182)"><line stroke="#000" x2="-6" y1="0.5" y2="0.5"></line><text fill="#000" x="-9" y="0.5" dy="0.32em" style="font-size: 12px;">3.00%</text></g><g class="tick" opacity="1" transform="translate(0,190.9090909090909)"><line stroke="#000" x2="-6" y1="0.5" y2="0.5"></line><text fill="#000" x="-9" y="0.5" dy="0.32em" style="font-size: 12px;">4.00%</text></g><g class="tick" opacity="1" transform="translate(0,163.63636363636363)"><line stroke="#000" x2="-6" y1="0.5" y2="0.5"></line><text fill="#000" x="-9" y="0.5" dy="0.32em" style="font-size: 12px;">5.00%</text></g><g class="tick" opacity="1" transform="translate(0,136.36363636363637)"><line stroke="#000" x2="-6" y1="0.5" y2="0.5"></line><text fill="#000" x="-9" y="0.5" dy="0.32em" style="font-size: 12px;">6.00%</text></g><g class="tick" opacity="1" transform="translate(0,109.09090909090907)"><line stroke="#000" x2="-6" y1="0.5" y2="0.5"></line><text fill="#000" x="-9" y="0.5" dy="0.32em" style="font-size: 12px;">7.00%</text></g><g class="tick" opacity="1" transform="translate(0,81.81818181818181)"><line stroke="#000" x2="-6" y1="0.5" y2="0.5"></line><text fill="#000" x="-9" y="0.5" dy="0.32em" style="font-size: 12px;">8.00%</text></g><g class="tick" opacity="1" transform="translate(0,54.54545454545456)"><line stroke="#000" x2="-6" y1="0.5" y2="0.5"></line><text fill="#000" x="-9" y="0.5" dy="0.32em" style="font-size: 12px;">9.00%</text></g><g class="tick" opacity="1" transform="translate(0,27.272727272727252)"><line stroke="#000" x2="-6" y1="0.5" y2="0.5"></line><text fill="#000" x="-9" y="0.5" dy="0.32em" style="font-size: 12px;">10.00%</text></g><g class="tick" opacity="1" transform="translate(0,0)"><line stroke="#000" x2="-6" y1="0.5" y2="0.5"></line><text fill="#000" x="-9" y="0.5" dy="0.32em" style="font-size: 12px;">11.00%</text></g></g><g class="grid-lines" fill="none" font-size="10" font-family="sans-serif" text-anchor="end"><path class="domain" stroke="#000" d="M410,300.5H0.5V0.5H410"></path><g class="tick" opacity="1" transform="translate(0,300)"><line stroke="#000" x2="410" y1="0.5" y2="0.5" style="stroke: #ccc; fill: none;"></line></g><g class="tick" opacity="1" transform="translate(0,272.72727272727275)"><line stroke="#000" x2="410" y1="0.5" y2="0.5" style="stroke: #ccc; fill: none;"></line></g><g class="tick" opacity="1" transform="translate(0,245.45454545454544)"><line stroke="#000" x2="410" y1="0.5" y2="0.5" style="stroke: #ccc; fill: none;"></line></g><g class="tick" opacity="1" transform="translate(0,218.1818181818182)"><line stroke="#000" x2="410" y1="0.5" y2="0.5" style="stroke: #ccc; fill: none;"></line></g><g class="tick" opacity="1" transform="translate(0,190.9090909090909)"><line stroke="#000" x2="410" y1="0.5" y2="0.5" style="stroke: #ccc; fill: none;"></line></g><g class="tick" opacity="1" transform="translate(0,163.63636363636363)"><line stroke="#000" x2="410" y1="0.5" y2="0.5" style="stroke: #ccc; fill: none;"></line></g><g class="tick" opacity="1" transform="translate(0,136.36363636363637)"><line stroke="#000" x2="410" y1="0.5" y2="0.5" style="stroke: #ccc; fill: none;"></line></g><g class="tick" opacity="1" transform="translate(0,109.09090909090907)"><line stroke="#000" x2="410" y1="0.5" y2="0.5" style="stroke: #ccc; fill: none;"></line></g><g class="tick" opacity="1" transform="translate(0,81.81818181818181)"><line stroke="#000" x2="410" y1="0.5" y2="0.5" style="stroke: #ccc; fill: none;"></line></g><g class="tick" opacity="1" transform="translate(0,54.54545454545456)"><line stroke="#000" x2="410" y1="0.5" y2="0.5" style="stroke: #ccc; fill: none;"></line></g><g class="tick" opacity="1" transform="translate(0,27.272727272727252)"><line stroke="#000" x2="410" y1="0.5" y2="0.5" style="stroke: #ccc; fill: none;"></line></g><g class="tick" opacity="1" transform="translate(0,0)"><line stroke="#000" x2="410" y1="0.5" y2="0.5" style="stroke: #ccc; fill: none;"></line></g></g><g class="lines"><path class="line" d="M3.9035626535626538,298.87336363636365L7.681203931203931,300L11.584766584766585,299.78972727272725L15.367654586404585,299.77881818181817L19.27121723996724,298.6483636363636L23.174779893529895,298.62654545454546L26.70057841932842,299.475L30.598894348894348,298.4912727272727L34.37653562653563,299.79163636363637L38.28009828009828,299.5249090909091L42.05773955773956,295.77245454545454L45.96130221130221,296.13354545454547L49.86486486486487,288.66027272727274L53.64250614250615,294.58418181818183L57.546068796068795,293.42781818181817L61.328956797706795,294.297L65.23251945126945,294.2991818181818L69.1360821048321,292.6641818181818L72.66188063063062,292.77354545454546L76.56019656019656,291.38645454545457L80.33783783783784,292.79836363636366L84.2414004914005,291.40881818181816L88.01904176904176,289.60227272727275L91.92260442260442,288.04063636363634L95.82616707616708,289.63445454545456L99.60380835380836,290.93754545454544L103.50737100737102,290.589L107.29025900900902,291.35727272727274L111.19382166257166,291.5656363636364L115.09738431613431,289.59027272727275L118.62318284193283,288.76472727272727L122.52149877149877,286.6317272727273L126.29914004914005,288.57681818181817L130.20270270270268,287.9888181818182L133.98034398034397,287.92636363636365L137.88390663390663,285.34090909090907L141.7874692874693,283.93554545454543L145.5651105651106,283.5490909090909L149.46867321867322,285.0477272727273L153.25156122031123,284.112L157.15512387387386,284.0920909090909L161.05868652743652,282.4546363636364L164.71040642915642,282.2162727272727L168.60872235872236,282.3820909090909L172.38636363636365,282.4977272727273L176.28992628992629,280.1012727272727L180.06756756756758,278.85818181818183L183.9711302211302,279.2915454545454L187.87469287469287,278.4897272727273L191.65233415233416,277.23463636363635L195.5558968058968,275.63454545454545L199.3387848075348,275.9001818181818L203.24234746109747,274.36663636363636L207.14591011466013,270.94336363636364L210.67170864045866,271.6150909090909L214.5700245700246,271.3489090909091L218.34766584766584,271.2831818181818L222.25122850122852,269.9967272727273L226.02886977886976,270.102L229.93243243243245,269.7117272727273L233.8359950859951,272.19327272727276L237.61363636363637,269.3937272727273L241.51719901719903,266.69890909090907L245.30008701883702,269.10927272727275L249.20364967239968,266.5573636363636L253.10721232596234,262.71381818181817L256.63301085176084,263.61463636363635L260.5313267813268,262.27118181818184L264.3089680589681,260.67872727272726L268.21253071253074,260.54754545454546L271.99017199017203,260.08445454545455L275.89373464373466,259.41027272727274L279.7972972972973,261.654L283.5749385749386,256.88072727272726L287.4785012285012,256.3729090909091L291.26138923013923,259.302L295.16495188370186,256.2820909090909L299.06851453726455,252.6548181818182L302.59431306306305,249.4587272727273L306.492628992629,253.014L310.27027027027026,250.46509090909092L314.17383292383295,250.8919090909091L317.95147420147424,245.25736363636364L321.8550368550369,248.22272727272727L325.7585995085995,249.6662727272727L329.5362407862408,246.84545454545454L333.4398034398034,246.67936363636363L337.22269144144144,250.45227272727274L341.1262540950041,247.51472727272727L345.02981674856676,248.60372727272727L348.68153665028666,246.06627272727272L352.57985257985257,243.4639090909091L356.35749385749386,246.16036363636363L360.2610565110565,243.77072727272727L364.0386977886978,243.16227272727275L367.9422604422604,245.21072727272727L371.8458230958231,250.48445454545455L375.62346437346434,244.88018181818182L379.52702702702703,247.36227272727274L383.30991502866505,249.45245454545454L387.2134776822277,248.53363636363636L391.1170403357903,245.40627272727272L394.64283886158887,240.14045454545453L398.5411547911548,238.215L402.3187960687961,239.88354545454547L406.2223587223587,235.09118181818184L410,234.55963636363637" data-legend="r" style="stroke: rgb(31, 119, 180); fill: none;"></path><path class="line" d="M3.9035626535626538,197.4597272727273L7.681203931203931,206.07600000000002L11.584766584766585,204.43200000000002L15.367654586404585,201.6801818181818L19.27121723996724,192.88254545454546L23.174779893529895,203.39345454545455L26.70057841932842,199.17954545454546L30.598894348894348,203.30263636363634L34.37653562653563,195.64636363636365L38.28009828009828,200.69018181818183L42.05773955773956,202.92627272727273L45.96130221130221,205.8880909090909L49.86486486486487,204.3049090909091L53.64250614250615,194.05772727272728L57.546068796068795,190.22672727272732L61.328956797706795,186.438L65.23251945126945,182.56063636363635L69.1360821048321,187.37345454545454L72.66188063063062,192.68481818181817L76.56019656019656,201.9649090909091L80.33783783783784,195.135L84.2414004914005,192.70472727272727L88.01904176904176,184.20681818181816L91.92260442260442,194.055L95.82616707616708,200.5159090909091L99.60380835380836,186.73963636363635L103.50737100737102,198.6387272727273L107.29025900900902,203.46300000000002L111.19382166257166,201.87872727272725L115.09738431613431,201.88281818181818L118.62318284193283,199.73072727272728L122.52149877149877,205.91863636363635L126.29914004914005,205.3579090909091L130.20270270270268,205.71790909090907L133.98034398034397,201.7341818181818L137.88390663390663,203.72836363636364L141.7874692874693,207.5179090909091L145.5651105651106,203.67081818181816L149.46867321867322,204.29427272727273L153.25156122031123,205.98654545454548L157.15512387387386,202.4569090909091L161.05868652743652,202.67045454545453L164.71040642915642,198.93245454545453L168.60872235872236,197.45590909090907L172.38636363636365,198.09736363636364L176.28992628992629,191.77118181818182L180.06756756756758,191.64463636363635L183.9711302211302,188.6727272727273L187.87469287469287,192.91336363636364L191.65233415233416,189.8989090909091L195.5558968058968,183.8301818181818L199.3387848075348,185.71200000000002L203.24234746109747,188.12918181818182L207.14591011466013,182.5336363636364L210.67170864045866,182.40736363636364L214.5700245700246,176.19545454545454L218.34766584766584,173.9552727272727L222.25122850122852,171.22909090909093L226.02886977886976,169.356L229.93243243243245,174.73690909090908L233.8359950859951,170.70845454545454L237.61363636363637,161.64872727272729L241.51719901719903,155.13490909090908L245.30008701883702,162.41154545454546L249.20364967239968,160.0429090909091L253.10721232596234,158.54809090909094L256.63301085176084,152.43163636363636L260.5313267813268,151.15336363636365L264.3089680589681,158.88081818181817L268.21253071253074,153.02236363636365L271.99017199017203,149.53445454545457L275.89373464373466,150.37800000000001L279.7972972972973,157.7828181818182L283.5749385749386,150.75381818181816L287.4785012285012,145.33936363636363L291.26138923013923,143.3989090909091L295.16495188370186,142.90036363636364L299.06851453726455,136.92354545454546L302.59431306306305,135.41700000000003L306.492628992629,137.54645454545457L310.27027027027026,137.30372727272726L314.17383292383295,130.8351818181818L317.95147420147424,130.0718181818182L321.8550368550369,133.2400909090909L325.7585995085995,133.8970909090909L329.5362407862408,119.44854545454544L333.4398034398034,114.02890909090911L337.22269144144144,118.56136363636364L341.1262540950041,116.30836363636365L345.02981674856676,110.73109090909088L348.68153665028666,112.08409090909089L352.57985257985257,112.89518181818181L356.35749385749386,113.85900000000001L360.2610565110565,111.46227272727273L364.0386977886978,104.52954545454546L367.9422604422604,111.97200000000001L371.8458230958231,114.51763636363634L375.62346437346434,102.07472727272727L379.52702702702703,90.97690909090909L383.30991502866505,92.86172727272728L387.2134776822277,91.82863636363638L391.1170403357903,80.74254545454545L394.64283886158887,80.63427272727273L398.5411547911548,74.37818181818184L402.3187960687961,76.91645454545457L406.2223587223587,68.39427272727272L410,59.37081818181818" data-legend="python" style="stroke: rgb(255, 127, 14); fill: none;"></path><path class="line" d="M3.9035626535626538,300L7.681203931203931,300L11.584766584766585,300L15.367654586404585,300L19.27121723996724,300L23.174779893529895,300L26.70057841932842,300L30.598894348894348,300L34.37653562653563,300L38.28009828009828,300L42.05773955773956,300L45.96130221130221,300L49.86486486486487,300L53.64250614250615,300L57.546068796068795,300L61.328956797706795,300L65.23251945126945,300L69.1360821048321,300L72.66188063063062,300L76.56019656019656,300L80.33783783783784,300L84.2414004914005,300L88.01904176904176,300L91.92260442260442,300L95.82616707616708,300L99.60380835380836,300L103.50737100737102,300L107.29025900900902,300L111.19382166257166,300L115.09738431613431,300L118.62318284193283,300L122.52149877149877,300L126.29914004914005,300L130.20270270270268,300L133.98034398034397,300L137.88390663390663,300L141.7874692874693,300L145.5651105651106,300L149.46867321867322,300L153.25156122031123,300L157.15512387387386,300L161.05868652743652,300L164.71040642915642,299.9800909090909L168.60872235872236,299.93809090909093L172.38636363636365,299.9803636363636L176.28992628992629,300L180.06756756756758,300L183.9711302211302,300L187.87469287469287,299.9798181818182L191.65233415233416,300L195.5558968058968,299.982L199.3387848075348,299.9803636363636L203.24234746109747,299.88218181818183L207.14591011466013,299.9828181818182L210.67170864045866,299.95445454545455L214.5700245700246,299.9691818181818L218.34766584766584,299.9522727272727L222.25122850122852,299.89936363636366L226.02886977886976,299.89472727272727L229.93243243243245,299.9372727272727L233.8359950859951,299.90345454545457L237.61363636363637,299.82627272727274L241.51719901719903,299.81836363636364L245.30008701883702,299.70954545454543L249.20364967239968,299.6048181818182L253.10721232596234,299.43245454545456L256.63301085176084,299.38445454545456L260.5313267813268,299.47963636363636L264.3089680589681,299.42645454545453L268.21253071253074,299.313L271.99017199017203,299.05336363636366L275.89373464373466,299.2671818181818L279.7972972972973,299.1818181818182L283.5749385749386,299.2298181818182L287.4785012285012,299.07327272727275L291.26138923013923,299.27972727272726L295.16495188370186,299.21345454545457L299.06851453726455,299.0329090909091L302.59431306306305,298.98818181818183L306.492628992629,299.21236363636365L310.27027027027026,298.9360909090909L314.17383292383295,298.9628181818182L317.95147420147424,299.1662727272727L321.8550368550369,299.17554545454544L325.7585995085995,299.02445454545455L329.5362407862408,298.7833636363636L333.4398034398034,298.86163636363636L337.22269144144144,299.05663636363636L341.1262540950041,298.896L345.02981674856676,298.6699090909091L348.68153665028666,298.85045454545457L352.57985257985257,298.7271818181818L356.35749385749386,298.58072727272724L360.2610565110565,298.7440909090909L364.0386977886978,298.4948181818182L367.9422604422604,298.7320909090909L371.8458230958231,298.5523636363636L375.62346437346434,298.6952727272727L379.52702702702703,298.73727272727274L383.30991502866505,298.82836363636363L387.2134776822277,298.7473636363636L391.1170403357903,298.9707272727273L394.64283886158887,298.8466363636364L398.5411547911548,298.9513636363636L402.3187960687961,298.8741818181818L406.2223587223587,298.6843636363636L410,298.78036363636363" data-legend="julia-lang" style="stroke: rgb(44, 160, 44); fill: none;"></path><path class="line" d="M3.9035626535626538,300L7.681203931203931,300L11.584766584766585,300L15.367654586404585,300L19.27121723996724,300L23.174779893529895,300L26.70057841932842,300L30.598894348894348,300L34.37653562653563,300L38.28009828009828,300L42.05773955773956,300L45.96130221130221,300L49.86486486486487,300L53.64250614250615,299.92581818181816L57.546068796068795,299.79027272727274L61.328956797706795,300L65.23251945126945,299.94L69.1360821048321,299.94L72.66188063063062,299.8969090909091L76.56019656019656,299.94627272727274L80.33783783783784,300L84.2414004914005,300L88.01904176904176,300L91.92260442260442,299.958L95.82616707616708,299.9560909090909L99.60380835380836,299.83145454545456L103.50737100737102,299.9230909090909L107.29025900900902,299.8459090909091L111.19382166257166,299.9329090909091L115.09738431613431,299.87072727272727L118.62318284193283,299.78754545454547L122.52149877149877,299.8603636363636L126.29914004914005,299.86663636363636L130.20270270270268,299.8922727272727L133.98034398034397,299.9203636363636L137.88390663390663,299.77527272727275L141.7874692874693,299.8690909090909L145.5651105651106,299.868L149.46867321867322,300L153.25156122031123,299.9484545454545L157.15512387387386,299.95418181818184L161.05868652743652,299.9356363636364L164.71040642915642,299.9203636363636L168.60872235872236,299.7520909090909L172.38636363636365,299.901L176.28992628992629,299.8164545454545L180.06756756756758,299.8688181818182L183.9711302211302,299.90563636363635L187.87469287469287,299.6762727272727L191.65233415233416,299.7327272727273L195.5558968058968,299.7651818181818L199.3387848075348,299.78318181818184L203.24234746109747,299.343L207.14591011466013,299.48372727272726L210.67170864045866,299.6498181818182L214.5700245700246,299.58272727272725L218.34766584766584,299.63236363636366L222.25122850122852,299.2772727272727L226.02886977886976,299.42727272727274L229.93243243243245,299.6080909090909L233.8359950859951,299.2903636363636L237.61363636363637,299.43545454545455L241.51719901719903,299.30345454545454L245.30008701883702,299.5805454545455L249.20364967239968,299.6893636363636L253.10721232596234,299.4891818181818L256.63301085176084,299.30754545454545L260.5313267813268,299.47963636363636L264.3089680589681,299.33590909090907L268.21253071253074,299.42754545454545L271.99017199017203,299.2939090909091L275.89373464373466,299.1856363636364L279.7972972972973,299.42263636363634L283.5749385749386,299.307L287.4785012285012,299.2011818181818L291.26138923013923,299.3140909090909L295.16495188370186,299.3258181818182L299.06851453726455,299.00127272727275L302.59431306306305,299.29745454545457L306.492628992629,299.22654545454543L310.27027027027026,299.33863636363634L314.17383292383295,299.3749090909091L317.95147420147424,299.3168181818182L321.8550368550369,299.30809090909094L325.7585995085995,299.26445454545456L329.5362407862408,299.0983636363636L333.4398034398034,299.3708181818182L337.22269144144144,299.41227272727275L341.1262540950041,299.6173636363636L345.02981674856676,299.46245454545453L348.68153665028666,299.313L352.57985257985257,299.3230909090909L356.35749385749386,299.10081818181817L360.2610565110565,299.26390909090907L364.0386977886978,299.3228181818182L367.9422604422604,299.2336363636364L371.8458230958231,299.56309090909093L375.62346437346434,299.4940909090909L379.52702702702703,299.4550909090909L383.30991502866505,299.5371818181818L387.2134776822277,299.61354545454543L391.1170403357903,299.25163636363635L394.64283886158887,299.3888181818182L398.5411547911548,299.1586363636364L402.3187960687961,299.33209090909094L406.2223587223587,299.3421818181818L410,299.52709090909093" data-legend="stata" style="stroke: rgb(214, 39, 40); fill: none;"></path><path class="line" d="M3.9035626535626538,284.22463636363636L7.681203931203931,279.717L11.584766584766585,278.94981818181816L15.367654586404585,279.849L19.27121723996724,282.93572727272726L23.174779893529895,283.05954545454546L26.70057841932842,286.2160909090909L30.598894348894348,284.15645454545455L34.37653562653563,283.11163636363636L38.28009828009828,282.9891818181818L42.05773955773956,284.08363636363634L45.96130221130221,287.08445454545455L49.86486486486487,286.0497272727273L53.64250614250615,285.8299090909091L57.546068796068795,285.59672727272726L61.328956797706795,287.5960909090909L65.23251945126945,288.11809090909094L69.1360821048321,288.81572727272726L72.66188063063062,288.1794545454545L76.56019656019656,288.6946363636364L80.33783783783784,288.96436363636366L84.2414004914005,287.982L88.01904176904176,287.8764545454545L91.92260442260442,288.97036363636363L95.82616707616708,288.1849090909091L99.60380835380836,289.37809090909093L103.50737100737102,290.4733636363636L107.29025900900902,290.89418181818183L111.19382166257166,289.5831818181818L115.09738431613431,289.3317272727273L118.62318284193283,288.924L122.52149877149877,289.4844545454545L126.29914004914005,289.2441818181818L130.20270270270268,289.8782727272727L133.98034398034397,288.4581818181818L137.88390663390663,286.9641818181818L141.7874692874693,287.2900909090909L145.5651105651106,287.14036363636365L149.46867321867322,288.5830909090909L153.25156122031123,289.4252727272727L157.15512387387386,288.3741818181818L161.05868652743652,288.03027272727275L164.71040642915642,287.5134545454545L168.60872235872236,289.392L172.38636363636365,287.84945454545453L176.28992628992629,286.10154545454543L180.06756756756758,285.1988181818182L183.9711302211302,284.4687272727273L187.87469287469287,284.98527272727273L191.65233415233416,284.0626363636364L195.5558968058968,285.7388181818182L199.3387848075348,286.07645454545457L203.24234746109747,286.3996363636364L207.14591011466013,283.9742727272727L210.67170864045866,284.01736363636365L214.5700245700246,281.64681818181816L218.34766584766584,282.2359090909091L222.25122850122852,280.5861818181818L226.02886977886976,279.67609090909093L229.93243243243245,279.64063636363636L233.8359950859951,277.9838181818182L237.61363636363637,275.54672727272725L241.51719901719903,276.51218181818183L245.30008701883702,277.7438181818182L249.20364967239968,276.1467272727273L253.10721232596234,274.86354545454543L256.63301085176084,276.1322727272727L260.5313267813268,277.43672727272724L264.3089680589681,274.7468181818182L268.21253071253074,273.32754545454543L271.99017199017203,273.7903636363636L275.89373464373466,273.4505454545455L279.7972972972973,274.3772727272727L283.5749385749386,273.8574545454545L287.4785012285012,274.431L291.26138923013923,274.7547272727273L295.16495188370186,272.77063636363636L299.06851453726455,272.649L302.59431306306305,272.17145454545454L306.492628992629,273.384L310.27027027027026,270.1352727272727L314.17383292383295,263.4531818181818L317.95147420147424,265.2409090909091L321.8550368550369,266.763L325.7585995085995,269.34654545454543L329.5362407862408,269.8652727272727L333.4398034398034,269.72154545454543L337.22269144144144,270.0518181818182L341.1262540950041,268.06718181818184L345.02981674856676,267.4388181818182L348.68153665028666,268.0573636363636L352.57985257985257,269.8971818181818L356.35749385749386,267.97172727272726L360.2610565110565,261.78736363636364L364.0386977886978,263.0312727272727L367.9422604422604,266.02854545454545L371.8458230958231,269.3618181818182L375.62346437346434,267.39436363636366L379.52702702702703,267.8855454545455L383.30991502866505,266.697L387.2134776822277,264.672L391.1170403357903,266.7812727272727L394.64283886158887,264.7810909090909L398.5411547911548,267.86454545454546L402.3187960687961,266.3847272727273L406.2223587223587,262.88890909090907L410,262.6748181818182" data-legend="excel" style="stroke: rgb(148, 103, 189); fill: none;"></path><path class="line" d="M3.9035626535626538,84.7780909090909L7.681203931203931,89.12754545454544L11.584766584766585,96.65454545454543L15.367654586404585,113.54645454545454L19.27121723996724,103.84336363636365L23.174779893529895,114.72272727272727L26.70057841932842,109.91154545454546L30.598894348894348,105.97636363636366L34.37653562653563,109.22345454545456L38.28009828009828,98.1488181818182L42.05773955773956,110.49463636363637L45.96130221130221,119.01545454545453L49.86486486486487,114.72845454545455L53.64250614250615,113.1913636363636L57.546068796068795,105.9739090909091L61.328956797706795,107.66454545454545L65.23251945126945,75.50290909090907L69.1360821048321,83.52600000000001L72.66188063063062,69.62590909090909L76.56019656019656,89.66318181818181L80.33783783783784,82.39445454545458L84.2414004914005,91.97345454545453L88.01904176904176,99.07636363636365L91.92260442260442,99.56236363636361L95.82616707616708,91.19318181818181L99.60380835380836,86.37736363636361L103.50737100737102,82.62054545454546L107.29025900900902,79.18390909090908L111.19382166257166,78.01718181818183L115.09738431613431,75.8012727272727L118.62318284193283,72.68754545454544L122.52149877149877,77.04600000000002L126.29914004914005,68.99972727272726L130.20270270270268,84.14727272727274L133.98034398034397,80.96945454545454L137.88390663390663,80.93536363636363L141.7874692874693,79.70918181818186L145.5651105651106,72.40609090909092L149.46867321867322,61.324909090909074L153.25156122031123,60.516818181818195L157.15512387387386,64.23436363636361L161.05868652743652,61.07890909090915L164.71040642915642,49.87009090909089L168.60872235872236,48.1579090909091L172.38636363636365,55.59981818181819L176.28992628992629,70.76645454545454L180.06756756756758,67.47463636363634L183.9711302211302,66.55663636363636L187.87469287469287,62.77827272727271L191.65233415233416,56.853818181818184L195.5558968058968,51.98890909090906L199.3387848075348,51.93899999999999L203.24234746109747,65.18563636363638L207.14591011466013,58.28509090909091L210.67170864045866,53.05254545454545L214.5700245700246,44.644363636363636L218.34766584766584,52.19563636363637L222.25122850122852,62.157545454545414L226.02886977886976,68.64027272727273L229.93243243243245,61.77109090909093L233.8359950859951,34.964999999999975L237.61363636363637,25.527272727272702L241.51719901719903,12.951818181818169L245.30008701883702,14.800909090909101L249.20364967239968,33.58718181818176L253.10721232596234,23.170909090909106L256.63301085176084,14.547272727272741L260.5313267813268,10.377272727272725L264.3089680589681,24.992727272727222L268.21253071253074,35.84236363636364L271.99017199017203,35.58818181818185L275.89373464373466,40.971000000000004L279.7972972972973,28.192090909090837L283.5749385749386,20.519999999999982L287.4785012285012,10.800000000000011L291.26138923013923,15.302727272727225L295.16495188370186,30.835636363636354L299.06851453726455,31.2289090909091L302.59431306306305,19.00090909090909L306.492628992629,18.7172727272727L310.27027027027026,29.994818181818175L314.17383292383295,43.389272727272726L317.95147420147424,41.64954545454549L321.8550368550369,45.501000000000005L325.7585995085995,42.476454545454544L329.5362407862408,31.53463636363631L333.4398034398034,30.264818181818214L337.22269144144144,40.596545454545435L341.1262540950041,51.75027272727277L345.02981674856676,43.839272727272714L348.68153665028666,33.56890909090913L352.57985257985257,31.99745454545456L356.35749385749386,56.53418181818185L360.2610565110565,66.36354545454546L364.0386977886978,71.44418181818179L367.9422604422604,75.06027272727272L371.8458230958231,72.80127272727276L375.62346437346434,68.17745454545454L379.52702702702703,62.47772727272729L383.30991502866505,73.12881818181819L387.2134776822277,81.19418181818182L391.1170403357903,80.27454545454543L394.64283886158887,71.38254545454544L398.5411547911548,63.63190909090912L402.3187960687961,66.63518181818179L406.2223587223587,82.18363636363634L410,87.95918181818183" data-legend="java" style="stroke: rgb(140, 86, 75); fill: none;"></path><path class="line" d="M3.9035626535626538,238.02518181818184L7.681203931203931,244.08409090909092L11.584766584766585,245.901L15.367654586404585,258.5904545454545L19.27121723996724,245.25872727272727L23.174779893529895,249.0259090909091L26.70057841932842,242.76354545454546L30.598894348894348,242.15754545454544L34.37653562653563,250.06472727272728L38.28009828009828,252.0081818181818L42.05773955773956,254.90345454545457L45.96130221130221,256.1525454545455L49.86486486486487,253.09063636363635L53.64250614250615,242.57754545454546L57.546068796068795,231.82881818181818L61.328956797706795,238.8349090909091L65.23251945126945,240.7701818181818L69.1360821048321,237.58336363636363L72.66188063063062,242.03236363636364L76.56019656019656,236.25845454545455L80.33783783783784,238.9150909090909L84.2414004914005,244.05981818181817L88.01904176904176,242.922L91.92260442260442,241.76618181818182L95.82616707616708,238.99200000000002L99.60380835380836,238.79645454545454L103.50737100737102,235.2799090909091L107.29025900900902,243.243L111.19382166257166,250.67045454545456L115.09738431613431,246.75490909090908L118.62318284193283,243.9820909090909L122.52149877149877,242.86336363636363L126.29914004914005,250.8109090909091L130.20270270270268,251.98172727272728L133.98034398034397,255.6940909090909L137.88390663390663,254.24918181818182L141.7874692874693,249.60518181818182L145.5651105651106,243.2798181818182L149.46867321867322,245.6408181818182L153.25156122031123,247.89927272727272L157.15512387387386,248.45454545454544L161.05868652743652,247.88018181818182L164.71040642915642,245.21454545454546L168.60872235872236,244.5820909090909L172.38636363636365,250.42636363636365L176.28992628992629,252.44727272727272L180.06756756756758,255.01445454545456L183.9711302211302,255.711L187.87469287469287,248.29827272727272L191.65233415233416,243.45190909090908L195.5558968058968,242.14118181818182L199.3387848075348,248.8219090909091L203.24234746109747,250.51936363636364L207.14591011466013,246.03518181818183L210.67170864045866,246.765L214.5700245700246,244.64590909090907L218.34766584766584,248.32227272727272L222.25122850122852,249.94390909090907L226.02886977886976,254.0449090909091L229.93243243243245,252.41072727272729L233.8359950859951,244.7899090909091L237.61363636363637,238.07781818181817L241.51719901719903,234.6548181818182L245.30008701883702,242.96345454545454L249.20364967239968,246.82772727272726L253.10721232596234,243.08427272727272L256.63301085176084,240.77263636363637L260.5313267813268,244.48909090909092L264.3089680589681,250.20299999999997L268.21253071253074,254.1820909090909L271.99017199017203,256.8231818181818L275.89373464373466,255.98972727272727L279.7972972972973,247.51881818181818L283.5749385749386,240.7669090909091L287.4785012285012,240.63190909090912L291.26138923013923,245.25572727272728L295.16495188370186,247.869L299.06851453726455,246.04281818181818L302.59431306306305,244.3849090909091L306.492628992629,243.88418181818182L310.27027027027026,248.94109090909092L314.17383292383295,254.60045454545457L317.95147420147424,261.12654545454546L321.8550368550369,261.756L325.7585995085995,253.194L329.5362407862408,246.7022727272727L333.4398034398034,245.06127272727275L337.22269144144144,251.535L341.1262540950041,254.52245454545454L345.02981674856676,253.1888181818182L348.68153665028666,253.67863636363637L352.57985257985257,253.86381818181817L356.35749385749386,261.198L360.2610565110565,266.29145454545454L364.0386977886978,264.14536363636364L367.9422604422604,268.35545454545456L371.8458230958231,264.021L375.62346437346434,254.63945454545456L379.52702702702703,254.04818181818183L383.30991502866505,257.10545454545456L387.2134776822277,261.4600909090909L391.1170403357903,261.70145454545457L394.64283886158887,263.766L398.5411547911548,260.5881818181818L402.3187960687961,264.41754545454546L406.2223587223587,268.0099090909091L410,272.0342727272727" data-legend="c" style="stroke: rgb(227, 119, 194); fill: none;"></path><path class="line" d="M3.9035626535626538,156.1431818181818L7.681203931203931,151.07372727272727L11.584766584766585,144.43854545454548L15.367654586404585,158.9419090909091L19.27121723996724,154.8676363636364L23.174779893529895,169.81745454545455L26.70057841932842,160.58427272727272L30.598894348894348,170.98636363636362L34.37653562653563,171.87736363636364L38.28009828009828,180.16281818181818L42.05773955773956,177.97363636363636L45.96130221130221,183.84109090909095L49.86486486486487,179.9119090909091L53.64250614250615,174.24927272727274L57.546068796068795,176.66236363636364L61.328956797706795,181.16263636363635L65.23251945126945,179.6800909090909L69.1360821048321,162.4189090909091L72.66188063063062,173.89581818181819L76.56019656019656,165.41045454545457L80.33783783783784,174.61772727272728L84.2414004914005,163.21418181818183L88.01904176904176,180.57845454545452L91.92260442260442,187.716L95.82616707616708,178.9060909090909L99.60380835380836,175.56954545454545L103.50737100737102,169.40263636363636L107.29025900900902,178.11327272727274L111.19382166257166,181.64945454545455L115.09738431613431,187.94918181818184L118.62318284193283,188.25627272727272L122.52149877149877,182.51018181818182L126.29914004914005,195.32263636363638L130.20270270270268,196.18990909090908L133.98034398034397,196.86736363636362L137.88390663390663,200.43190909090907L141.7874692874693,196.17054545454545L145.5651105651106,184.39445454545455L149.46867321867322,188.92445454545452L153.25156122031123,186.59045454545455L157.15512387387386,194.51454545454547L161.05868652743652,189.02154545454545L164.71040642915642,194.6110909090909L168.60872235872236,189.102L172.38636363636365,200.11909090909091L176.28992628992629,204.09845454545456L180.06756756756758,200.0301818181818L183.9711302211302,201.72899999999998L187.87469287469287,199.87445454545454L191.65233415233416,193.82072727272728L195.5558968058968,185.7643636363636L199.3387848075348,186.9349090909091L203.24234746109747,197.06127272727275L207.14591011466013,193.8430909090909L210.67170864045866,188.88272727272727L214.5700245700246,188.055L218.34766584766584,189.49690909090907L222.25122850122852,194.97954545454544L226.02886977886976,200.00809090909092L229.93243243243245,201.2451818181818L233.8359950859951,193.36990909090912L237.61363636363637,183.2209090909091L241.51719901719903,175.65463636363637L245.30008701883702,185.68445454545457L249.20364967239968,190.37890909090908L253.10721232596234,189.95836363636363L256.63301085176084,187.7397272727273L260.5313267813268,187.69036363636366L264.3089680589681,196.3003636363636L268.21253071253074,205.77845454545457L271.99017199017203,204.5089090909091L275.89373464373466,203.0860909090909L279.7972972972973,199.1770909090909L283.5749385749386,193.4419090909091L287.4785012285012,193.64890909090911L291.26138923013923,194.66181818181818L295.16495188370186,200.26554545454547L299.06851453726455,196.49372727272726L302.59431306306305,195.20672727272728L306.492628992629,198.55800000000002L310.27027027027026,200.8726363636364L314.17383292383295,206.3732727272727L317.95147420147424,207.4772727272727L321.8550368550369,212.57045454545454L325.7585995085995,210.276L329.5362407862408,198.04254545454546L333.4398034398034,192.834L337.22269144144144,197.22245454545455L341.1262540950041,209.22163636363638L345.02981674856676,206.12263636363636L348.68153665028666,205.87690909090907L352.57985257985257,205.39827272727274L356.35749385749386,212.69863636363638L360.2610565110565,216.48627272727273L364.0386977886978,216.54954545454547L367.9422604422604,227.68172727272727L371.8458230958231,223.99854545454548L375.62346437346434,214.01863636363635L379.52702702702703,212.28354545454545L383.30991502866505,218.21836363636362L387.2134776822277,218.68254545454545L391.1170403357903,225.3949090909091L394.64283886158887,221.86772727272728L398.5411547911548,216.85172727272726L402.3187960687961,227.8328181818182L406.2223587223587,234.14945454545455L410,229.19536363636365" data-legend="c++" style="stroke: rgb(127, 127, 127); fill: none;"></path><path class="line" d="M3.9035626535626538,297.7464545454545L7.681203931203931,295.98L11.584766584766585,297.68454545454546L15.367654586404585,297.12136363636364L19.27121723996724,296.79L23.174779893529895,295.8793636363636L26.70057841932842,296.84945454545453L30.598894348894348,295.97618181818183L34.37653562653563,295.62163636363636L38.28009828009828,295.8185454545455L42.05773955773956,296.7670909090909L45.96130221130221,297.2031818181818L49.86486486486487,295.83954545454543L53.64250614250615,294.7328181818182L57.546068796068795,291.7497272727273L61.328956797706795,292.8L65.23251945126945,294.4191818181818L69.1360821048321,293.3255454545455L72.66188063063062,293.65090909090907L76.56019656019656,289.93281818181816L80.33783783783784,289.22345454545456L84.2414004914005,292.905L88.01904176904176,293.27454545454543L91.92260442260442,294.04145454545454L95.82616707616708,292.665L99.60380835380836,293.04518181818185L103.50737100737102,293.90618181818184L107.29025900900902,293.0937272727273L111.19382166257166,294.0523636363636L115.09738431613431,290.5279090909091L118.62318284193283,288.55227272727274L122.52149877149877,289.2049090909091L126.29914004914005,291.8064545454545L130.20270270270268,291.55172727272725L133.98034398034397,292.39418181818183L137.88390663390663,293.5570909090909L141.7874692874693,293.0029090909091L145.5651105651106,289.3849090909091L149.46867321867322,289.3442727272727L153.25156122031123,289.8638181818182L157.15512387387386,289.341L161.05868652743652,287.96590909090907L164.71040642915642,288.44945454545456L168.60872235872236,287.09672727272726L172.38636363636365,289.2567272727273L176.28992628992629,289.2649090909091L180.06756756756758,289.4198181818182L183.9711302211302,288.6632727272727L187.87469287469287,288.7895454545455L191.65233415233416,286.52263636363637L195.5558968058968,284.5819090909091L199.3387848075348,286.6682727272727L203.24234746109747,287.64681818181816L207.14591011466013,285.816L210.67170864045866,284.5658181818182L214.5700245700246,283.4710909090909L218.34766584766584,283.563L222.25122850122852,284.721L226.02886977886976,284.9530909090909L229.93243243243245,285.63245454545455L233.8359950859951,285.4838181818182L237.61363636363637,283.78472727272725L241.51719901719903,281.61572727272727L245.30008701883702,282.81163636363635L249.20364967239968,284.1261818181818L253.10721232596234,282.30081818181816L256.63301085176084,281.5701818181818L260.5313267813268,280.40972727272725L264.3089680589681,280.8902727272727L268.21253071253074,283.01481818181816L271.99017199017203,283.1530909090909L275.89373464373466,284.8358181818182L279.7972972972973,282.68836363636365L283.5749385749386,280.8668181818182L287.4785012285012,280.07236363636366L291.26138923013923,282.60954545454547L295.16495188370186,283.6077272727273L299.06851453726455,280.989L302.59431306306305,280.39363636363635L306.492628992629,278.33590909090907L310.27027027027026,279.7690909090909L314.17383292383295,282.5080909090909L317.95147420147424,284.4861818181818L321.8550368550369,284.8172727272727L325.7585995085995,285.78409090909093L329.5362407862408,284.71090909090907L333.4398034398034,283.04045454545457L337.22269144144144,286.26354545454546L341.1262540950041,286.13154545454546L345.02981674856676,284.67463636363635L348.68153665028666,283.41436363636365L352.57985257985257,284.6980909090909L356.35749385749386,283.7680909090909L360.2610565110565,285.4194545454545L364.0386977886978,286.34754545454547L367.9422604422604,286.35845454545455L371.8458230958231,286.73672727272725L375.62346437346434,286.047L379.52702702702703,287.2129090909091L383.30991502866505,287.44281818181815L387.2134776822277,287.8598181818182L391.1170403357903,287.1537272727273L394.64283886158887,285.7532727272727L398.5411547911548,285.04581818181816L402.3187960687961,285.51218181818183L406.2223587223587,288.31336363636365L410,289.0600909090909" data-legend="matlab" style="stroke: rgb(188, 189, 34); fill: none;"></path><path class="line" d="M3.9035626535626538,299.4368181818182L7.681203931203931,299.45181818181817L11.584766584766585,299.1580909090909L15.367654586404585,299.1144545454545L19.27121723996724,299.4932727272727L23.174779893529895,299.2371818181818L26.70057841932842,298.95L30.598894348894348,298.9941818181818L34.37653562653563,298.54063636363634L38.28009828009828,298.19454545454545L42.05773955773956,298.83954545454543L45.96130221130221,298.9306363636364L49.86486486486487,299.51072727272725L53.64250614250615,298.8872727272727L57.546068796068795,299.301L61.328956797706795,299.07327272727275L65.23251945126945,299.34L69.1360821048321,299.1583636363636L72.66188063063062,298.96772727272725L76.56019656019656,299.3541818181818L80.33783783783784,299.01572727272725L84.2414004914005,299.27618181818184L88.01904176904176,298.9824545454546L91.92260442260442,299.02827272727274L95.82616707616708,299.1218181818182L99.60380835380836,298.98845454545454L103.50737100737102,299.22872727272727L107.29025900900902,298.88127272727274L111.19382166257166,298.85754545454546L115.09738431613431,299.0301818181818L118.62318284193283,299.097L122.52149877149877,298.46181818181816L126.29914004914005,299.11936363636363L130.20270270270268,299.0825454545455L133.98034398034397,299.4417272727273L137.88390663390663,299.00127272727275L141.7874692874693,298.9257272727273L145.5651105651106,298.8910909090909L149.46867321867322,299.1409090909091L153.25156122031123,298.53L157.15512387387386,298.5728181818182L161.05868652743652,298.83763636363636L164.71040642915642,298.70563636363636L168.60872235872236,298.57336363636364L172.38636363636365,298.791L176.28992628992629,298.83681818181816L180.06756756756758,298.6870909090909L183.9711302211302,298.73427272727275L187.87469287469287,299.00863636363636L191.65233415233416,298.7522727272727L195.5558968058968,298.64454545454544L199.3387848075348,298.5998181818182L203.24234746109747,298.5507272727273L207.14591011466013,298.692L210.67170864045866,298.5679090909091L214.5700245700246,298.56218181818184L218.34766584766584,298.6729090909091L222.25122850122852,298.53790909090907L226.02886977886976,298.779L229.93243243243245,298.761L233.8359950859951,298.5324545454545L237.61363636363637,297.68372727272725L241.51719901719903,298.2283636363636L245.30008701883702,298.5152727272727L249.20364967239968,298.41845454545455L253.10721232596234,298.6090909090909L256.63301085176084,298.21745454545453L260.5313267813268,298.5752727272727L264.3089680589681,298.3396363636364L268.21253071253074,297.6111818181818L271.99017199017203,298.24172727272725L275.89373464373466,298.68081818181815L279.7972972972973,298.6363636363636L283.5749385749386,298.30554545454544L287.4785012285012,297.87463636363634L291.26138923013923,298.0279090909091L295.16495188370186,298.5711818181818L299.06851453726455,298.1290909090909L302.59431306306305,298.0606363636364L306.492628992629,298.1852727272727L310.27027027027026,298.2602727272727L314.17383292383295,297.84027272727275L317.95147420147424,297.93627272727275L321.8550368550369,297.82063636363637L325.7585995085995,298.1686363636364L329.5362407862408,298.4683636363636L333.4398034398034,298.3521818181818L337.22269144144144,298.809L341.1262540950041,298.3805454545454L345.02981674856676,298.401L348.68153665028666,298.16318181818184L352.57985257985257,298.8354545454545L356.35749385749386,298.6791818181818L360.2610565110565,298.05136363636365L364.0386977886978,297.9529090909091L367.9422604422604,298.314L371.8458230958231,298.68872727272725L375.62346437346434,298.4290909090909L379.52702702702703,298.43154545454547L383.30991502866505,298.4956363636364L387.2134776822277,298.64072727272725L391.1170403357903,298.7836363636364L394.64283886158887,298.44272727272727L398.5411547911548,298.43345454545454L402.3187960687961,298.61454545454546L406.2223587223587,298.1168181818182L410,298.41954545454547" data-legend="fortran" style="stroke: rgb(23, 190, 207); fill: none;"></path><path class="line" d="M3.9035626535626538,298.87336363636365L7.681203931203931,298.35545454545456L11.584766584766585,298.737L15.367654586404585,297.7857272727273L19.27121723996724,296.4520909090909L23.174779893529895,294.8110909090909L26.70057841932842,296.32445454545456L30.598894348894348,295.34754545454547L34.37653562653563,297.91527272727274L38.28009828009828,297.52936363636366L42.05773955773956,297.26454545454544L45.96130221130221,296.38036363636365L49.86486486486487,295.83954545454543L53.64250614250615,297.0324545454545L57.546068796068795,296.9236363636364L61.328956797706795,295.5801818181818L65.23251945126945,295.49945454545457L69.1360821048321,296.27209090909093L72.66188063063062,295.25127272727275L76.56019656019656,293.00154545454546L80.33783783783784,293.36836363636365L84.2414004914005,294.6425454545454L88.01904176904176,294.9559090909091L91.92260442260442,296.95745454545454L95.82616707616708,296.6620909090909L99.60380835380836,296.7122727272727L103.50737100737102,297.5702727272727L107.29025900900902,298.49536363636366L111.19382166257166,298.3870909090909L115.09738431613431,298.4484545454545L118.62318284193283,298.7517272727273L122.52149877149877,298.96527272727275L126.29914004914005,298.8790909090909L130.20270270270268,299.05554545454544L133.98034398034397,299.30863636363637L137.88390663390663,299.2009090909091L141.7874692874693,299.3710909090909L145.5651105651106,299.472L149.46867321867322,299.3863636363636L153.25156122031123,299.30372727272726L157.15512387387386,299.26336363636364L161.05868652743652,299.2467272727273L164.71040642915642,299.26336363636364L168.60872235872236,299.5246363636364L172.38636363636365,299.66318181818184L176.28992628992629,299.49L180.06756756756758,299.28736363636364L183.9711302211302,299.39563636363636L187.87469287469287,299.4537272727273L191.65233415233416,299.4651818181818L195.5558968058968,299.3495454545455L199.3387848075348,299.19163636363635L203.24234746109747,299.343L207.14591011466013,299.1049090909091L210.67170864045866,299.39072727272725L214.5700245700246,299.44363636363636L218.34766584766584,299.31245454545456L222.25122850122852,299.32772727272726L226.02886977886976,299.56281818181816L229.93243243243245,299.38827272727275L233.8359950859951,299.40327272727274L237.61363636363637,299.2183636363636L241.51719901719903,299.15209090909093L245.30008701883702,299.1608181818182L249.20364967239968,299.2658181818182L253.10721232596234,299.3615454545455L256.63301085176084,299.346L260.5313267813268,299.3151818181818L264.3089680589681,299.2150909090909L268.21253071253074,299.0020909090909L271.99017199017203,299.05336363636366L275.89373464373466,299.2671818181818L279.7972972972973,299.02145454545456L283.5749385749386,299.16818181818184L287.4785012285012,298.83354545454546L291.26138923013923,298.971L295.16495188370186,299.1010909090909L299.06851453726455,298.8902727272727L302.59431306306305,298.9459090909091L306.492628992629,298.8747272727273L310.27027027027026,298.8499090909091L314.17383292383295,299.21863636363634L317.95147420147424,299.17990909090906L321.8550368550369,298.881L325.7585995085995,299.08445454545455L329.5362407862408,299.0697272727273L333.4398034398034,298.66663636363637L337.22269144144144,298.88645454545457L341.1262540950041,299.1021818181818L345.02981674856676,299.10872727272726L348.68153665028666,299.12781818181816L352.57985257985257,298.88972727272727L356.35749385749386,298.80545454545455L360.2610565110565,299.07627272727274L364.0386977886978,299.0217272727273L367.9422604422604,299.178L371.8458230958231,299.0713636363636L375.62346437346434,299.16136363636366L379.52702702702703,299.2423636363636L383.30991502866505,298.9873636363636L387.2134776822277,299.08063636363636L391.1170403357903,299.0509090909091L394.64283886158887,298.88127272727274L398.5411547911548,298.9513636363636L402.3187960687961,298.94836363636364L406.2223587223587,299.0198181818182L410,299.0541818181818" data-legend="latex" style="stroke: rgb(31, 119, 180); fill: none;"></path></g></g><g transform="translate(20, 150)"><text transform="rotate(-90)" x="-50" y="0" dy="1em" class="axis-label y-axis-label" style="text-anchor: middle; font-weight: bold;">% of Stack Overflow questions that month</text></g><g class="legend" transform="translate(530, 30)" style="font-size: 12px;"><text class="legend-title" style="font-weight: bold;">Tag</text><g class="legend-items" transform="translate(0,20)"><text y="0em" x="1em">java</text><text y="1em" x="1em">python</text><text y="2em" x="1em">c++</text><text y="3em" x="1em">c</text><text y="4em" x="1em">r</text><text y="5em" x="1em">excel</text><text y="6em" x="1em">matlab</text><text y="7em" x="1em">latex</text><text y="8em" x="1em">fortran</text><text y="9em" x="1em">julia-lang</text><text y="10em" x="1em">stata</text><circle cy="-0.25em" cx="0" r="0.4em" style="fill: rgb(140, 86, 75);"></circle><circle cy="0.75em" cx="0" r="0.4em" style="fill: rgb(255, 127, 14);"></circle><circle cy="1.75em" cx="0" r="0.4em" style="fill: rgb(127, 127, 127);"></circle><circle cy="2.75em" cx="0" r="0.4em" style="fill: rgb(227, 119, 194);"></circle><circle cy="3.75em" cx="0" r="0.4em" style="fill: rgb(31, 119, 180);"></circle><circle cy="4.75em" cx="0" r="0.4em" style="fill: rgb(148, 103, 189);"></circle><circle cy="5.75em" cx="0" r="0.4em" style="fill: rgb(188, 189, 34);"></circle><circle cy="6.75em" cx="0" r="0.4em" style="fill: rgb(31, 119, 180);"></circle><circle cy="7.75em" cx="0" r="0.4em" style="fill: rgb(23, 190, 207);"></circle><circle cy="8.75em" cx="0" r="0.4em" style="fill: rgb(44, 160, 44);"></circle><circle cy="9.75em" cx="0" r="0.4em" style="fill: rgb(214, 39, 40);"></circle></g><rect class="legend-box"></rect></g></svg>
            